<svg width="32" height="32" xmlns="http://www.w3.org/2000/svg"><path fill="none" d="M-1-1h4.177v4.177H-1z"/><g><path d="M1.32 1.102l15.2-.062 2.51 6.518 8.32 2.67.07 20.483-26.03-.06L1.32 1.1z" fill="#fff6d7"/><path d="M16.967 1.202l1.804 6.42 9.334 2.23L23.79 5l-6.823-3.8z" fill="#f1ce59"/><path d="M23.567 4.155c-2.494-1.96-5.185-3.53-7.39-3.745-.12-.014-.246-.022-.377-.024H1.276c-.23 0-.46.072-.623.208C.49.726.395.91.395 1.1v29.8c0 .188.09.367.258.504.167.134.387.207.623.207H27.54c.23 0 .453-.07.62-.206.168-.135.26-.315.26-.504V11.07c-.05-2.302-2.28-4.812-4.853-6.915zm-1.24 1.01c1.15.91 2.186 1.94 2.96 2.932-.67-.214-1.373-.373-2.032-.5-1.452-.263-2.872-.37-3.754-.412.005-.154.007-.328.007-.516 0-1.007-.08-2.44-.51-3.705-.004-.01-.007-.023-.012-.034 1.092.584 2.282 1.358 3.342 2.234zm4.33 25.02H2.153V1.808H15.8c.596-.028 1.11.448 1.503 1.536.357 1.036.447 2.386.446 3.323.002.685-.04 1.146-.04 1.146l-.07.754.938.008c.005 0 2.168.02 4.29.41 2.04.358 3.635 1.068 3.784 1.872.005.072.007.144.005.21v19.114z" fill="#c39427"/><g fill="#a98109" stroke="none"><path d="M13.277 16.77v-4.148h2.64c.147 0 .28-.086.342-.22.06-.133.04-.29-.057-.403l-4.526-5.28c-.143-.167-.43-.167-.572 0L6.58 12c-.097.11-.118.27-.057.402.062.134.195.22.343.22h2.64v4.148c0 .21.17.377.377.377H12.9c.208 0 .377-.168.377-.377zM22.293 19.63c-.06-.134-.195-.22-.342-.22h-2.64v-4.148c0-.208-.168-.377-.376-.377h-3.017c-.21 0-.377.17-.377.377v4.15l-2.64-.002c-.148 0-.28.086-.343.22-.062.133-.04.29.056.402l4.526 5.28c.07.084.175.132.285.132s.215-.048.286-.132l4.527-5.28c.096-.11.118-.268.056-.402z"/></g></g></svg>