<svg width="130" height="32" viewBox="0 0 130 32" fill="none" xmlns="http://www.w3.org/2000/svg">
    <path d="M49.81 5.35H39.01V13.87H45.56C46.82 13.87 47.88 14.06 48.73 14.43C49.58 14.81 50.27 15.3 50.79 15.91C51.31 16.52 51.68 17.19 51.89 17.94C52.1 18.69 52.21 19.42 52.21 20.15C52.21 21.24 52.04 22.19 51.71 23.02C51.38 23.85 50.92 24.54 50.35 25.1C49.78 25.66 49.09 26.07 48.31 26.36C47.52 26.65 46.69 26.79 45.8 26.79H37.53V4.16H49.82V5.35H49.81ZM39.01 15.06V25.6H45.8C47.19 25.6 48.36 25.15 49.3 24.25C50.24 23.35 50.71 22.01 50.71 20.25C50.71 19.24 50.56 18.4 50.25 17.74C49.94 17.08 49.54 16.55 49.04 16.15C48.54 15.75 47.98 15.47 47.35 15.31C46.72 15.15 46.1 15.06 45.48 15.06H39.02H39.01Z" fill="#FFFEF5"/>
    <path d="M55.73 26.8V4.16H57.15V26.79H55.73V26.8Z" fill="#FFFEF5"/>
    <path d="M71.05 14.27C72.38 14.58 73.49 15.2 74.38 16.14C75.27 17.08 75.72 18.35 75.72 19.97C75.72 21.1 75.5 22.1 75.07 22.97C74.64 23.84 74.05 24.58 73.3 25.17C72.55 25.77 71.67 26.22 70.65 26.53C69.63 26.84 68.54 26.99 67.37 26.99C66.11 26.99 64.87 26.89 63.66 26.68C62.45 26.47 61.37 26.18 60.45 25.79L60.85 24.73C62.09 25.15 63.25 25.43 64.35 25.58C65.44 25.72 66.31 25.8 66.95 25.8C69.23 25.8 71.01 25.3 72.3 24.3C73.59 23.3 74.24 21.86 74.24 19.98C74.24 18.38 73.67 17.13 72.53 16.22C71.39 15.31 69.77 14.86 67.67 14.86H65.02V13.67H67.67C69.55 13.67 71.01 13.25 72.05 12.4C73.09 11.55 73.61 10.42 73.61 9.02001C73.61 7.74001 73.08 6.76001 72.02 6.07001C70.96 5.38001 69.53 5.03001 67.74 5.03001C67.43 5.03001 67.06 5.05001 66.61 5.08001C66.17 5.11001 65.68 5.18001 65.15 5.28001C64.62 5.38001 64.06 5.52001 63.46 5.71001C62.86 5.90001 62.27 6.14001 61.67 6.42001L61.21 5.36001C62.16 4.85001 63.21 4.47001 64.36 4.22001C65.51 3.97001 66.71 3.84001 67.97 3.84001C70.25 3.84001 72 4.30001 73.24 5.23001C74.48 6.16001 75.1 7.42001 75.1 9.01001C75.1 10.23 74.72 11.3 73.96 12.22C73.2 13.15 72.24 13.78 71.09 14.11L71.06 14.28L71.05 14.27Z" fill="#FFFEF5"/>
    <path d="M92.81 26.8V15.47H80.88V26.8H79.39V4.16H80.88V14.2H92.81V4.16H94.3V26.79H92.81V26.8Z" fill="#FFFEF5"/>
    <path d="M97.65 14.73V13.84H99.17C99.26 12.76 99.47 11.67 99.8 10.58C100.13 9.49001 100.63 8.50001 101.29 7.61001C101.95 6.73001 102.8 6.00001 103.84 5.44001C104.88 4.88001 106.15 4.59001 107.65 4.59001C108.75 4.59001 109.76 4.67001 110.67 4.84001C111.58 5.01001 112.35 5.21001 112.99 5.45001L112.66 6.58001C111.82 6.27001 110.94 6.06001 110.03 5.95001C109.11 5.84001 108.33 5.78001 107.69 5.78001C106.56 5.78001 105.58 5.97001 104.74 6.36001C103.9 6.75001 103.19 7.29001 102.6 7.98001C102.01 8.68001 101.55 9.52001 101.21 10.52C100.87 11.51 100.64 12.62 100.53 13.83H111.07V14.72H97.65V14.73ZM111.07 16.69V17.62H100.47C100.51 18.7 100.65 19.74 100.88 20.74C101.11 21.73 101.5 22.61 102.04 23.36C102.58 24.11 103.3 24.71 104.21 25.17C105.12 25.62 106.28 25.85 107.69 25.85C108.2 25.85 108.91 25.8 109.83 25.7C110.75 25.6 111.8 25.41 113 25.12L113.26 26.18C112.91 26.31 112.49 26.43 112.02 26.53C111.55 26.63 111.05 26.72 110.53 26.8C110.01 26.88 109.49 26.94 108.97 26.98C108.45 27.02 107.97 27.05 107.53 27.05C106.09 27.05 104.86 26.83 103.82 26.39C102.78 25.95 101.93 25.32 101.25 24.5C100.58 23.68 100.07 22.69 99.72 21.53C99.37 20.37 99.17 19.07 99.11 17.64H97.65V16.71H111.07V16.69Z" fill="#FFFEF5"/>
    <path d="M123.71 3.83001C124.9 3.83001 125.98 3.91001 126.94 4.07001C127.9 4.23001 128.69 4.43001 129.31 4.67001L128.95 5.82001C128.11 5.55001 127.24 5.36001 126.35 5.22001C125.46 5.09001 124.62 5.02001 123.85 5.02001C122.48 5.02001 121.3 5.28001 120.32 5.79001C119.34 6.30001 118.52 7.02001 117.88 7.95001C117.24 8.88001 116.77 10 116.47 11.31C116.17 12.62 116.02 14.08 116.02 15.7C116.02 16.99 116.11 18.24 116.3 19.46C116.49 20.68 116.86 21.76 117.41 22.7C117.96 23.64 118.75 24.4 119.78 24.98C120.81 25.56 122.15 25.84 123.81 25.84C124.1 25.84 124.47 25.82 124.92 25.79C125.37 25.76 125.85 25.71 126.36 25.66C126.87 25.61 127.39 25.53 127.92 25.43C128.45 25.33 128.94 25.21 129.38 25.08L129.71 26.13C129.33 26.26 128.89 26.38 128.38 26.5C127.87 26.62 127.34 26.71 126.79 26.79C126.24 26.87 125.69 26.92 125.13 26.97C124.58 27.01 124.06 27.03 123.57 27.03C121.91 27.03 120.51 26.76 119.36 26.23C118.21 25.7 117.28 24.94 116.56 23.94C115.84 22.94 115.32 21.75 115 20.34C114.68 18.94 114.52 17.36 114.52 15.62C114.52 14.41 114.65 13.11 114.9 11.73C115.15 10.35 115.62 9.07001 116.29 7.90001C116.96 6.73001 117.9 5.76001 119.09 4.98001C120.28 4.21001 121.82 3.82001 123.7 3.82001L123.71 3.83001Z" fill="#FFFEF5"/>
    <path d="M0.740005 15.79C0.740005 24.34 7.67 31.26 16.21 31.26C24.75 31.26 31.68 24.33 31.68 15.79C31.68 7.25 24.75 0.32 16.21 0.32C7.67 0.32 0.740005 7.25 0.740005 15.79Z" fill="#32543B"/>
    <path d="M14.86 10.58V21H12.43L7.83 15.45V21H4.94V10.58H7.37L11.97 16.13V10.58H14.86Z" fill="#FFFEF5"/>
    <path d="M24.57 10.58L21.68 17.37L18.85 10.58H15.66L20.12 21H23.02L27.49 10.58H24.57Z" fill="#FFFEF5"/>
</svg>
