<?xml version="1.0" encoding="UTF-8"?>
<svg width="1345px" height="296px" viewBox="0 0 1345 296" version="1.1" xmlns="http://www.w3.org/2000/svg" xmlns:xlink="http://www.w3.org/1999/xlink">
    <defs>
        <linearGradient x1="49.9963124%" y1="1.20184391%" x2="49.9963124%" y2="100.430281%" id="linearGradient-1">
            <stop stop-color="#F48F41" offset="0%"/>
            <stop stop-color="#F05E2D" offset="100%"/>
        </linearGradient>
    </defs>
    <g stroke="none" stroke-width="1" fill="none" fill-rule="evenodd">
        <g>
            <g transform="translate(289.000000, 69.000000)" fill="#FFFFFF" fill-rule="nonzero">
                <path d="M146,0 L96.6,160 L142.9,160 L147.8,141 L196,141 L201.1,160 L247.4,160 L198,0 L146,0 Z M162.7,96.2 L172,59.3 L181,96.2 L162.7,96.2 Z"/>
                <polygon points="301.1 79.2 280.8 0 230.1 0 272.9 158.5 329.4 158.5 372.1 0 321.4 0"/>
                <path d="M403.1,0 L353.7,160 L400,160 L404.9,141 L453.2,141 L458.3,160 L504.6,160 L455.1,0 L403.1,0 Z M419.8,96.2 L429.1,59.3 L438.1,96.2 L419.8,96.2 Z"/>
                <path d="M34.9,0 L34.9,41.3 L48.8,41.3 L48.8,94.6 C48.8,97.2 48.3,99.7 47.3,101.9 C46.3,104.2 44.9,106.2 43.2,107.9 C41.5,109.7 39.5,111 37.1,112.1 C34.7,113.1 21.2,113.6 18.6,113.6 L8,113.6 L8,125.6 C8,137.7 5.3,149.4 0.3,160 L31.5,160 C40.3,160 48.6,158.3 56.3,154.9 C64,151.5 70.7,147 76.5,141.2 C82.2,135.5 86.8,128.7 90.2,121 C93.6,113.3 95.3,105 95.3,96.2 L95.3,0 L34.9,0 Z"/>
            </g>
            <g transform="translate(809.000000, 67.000000)" fill="url(#linearGradient-1)" fill-rule="nonzero">
                <path d="M158.3,154.9 C151.4,148.2 145.9,140.3 141.9,131.3 C140.5,128.3 139.4,125.1 138.5,121.9 C135.7,124 131.4,126.8 129.8,127.6 C127.5,128.7 125.1,129.6 122.6,130.1 C120.1,130.7 117.6,131 115.1,131 C112.6,131 110.4,130.6 108.5,129.7 C104.4,127.9 101.1,126 98.7,123.9 C96.3,121.8 94.3,119.8 92.7,118.1 C99.7,113.2 105.6,107.2 110.3,99.9 C115,92.6 118,84.4 119.3,75.3 C120.6,66.6 120.2,58.2 118.1,50.1 C116,42 112.5,34.7 107.7,28 C102.9,21.4 97,15.8 89.8,11.3 C82.7,6.8 74.8,3.8 66.1,2.4 C63.6,2.1 60.4,2 56.5,2 C52.6,2 49.4,2 46.9,2 L0.8,2 L0.8,162 L47.1,162 L47.1,128.5 C49.4,131 51.9,133.8 54.4,136.9 C56.9,140 59.6,143.2 62.6,146.4 C65.6,149.6 69.1,152.9 73,156.2 C77,159.5 81.6,162.7 86.9,165.8 C90.6,167.9 94.9,169.5 99.9,170.7 C104.9,171.9 110.2,172.5 115.7,172.5 C119.8,172.5 124.2,172.3 128.9,171.8 C133.6,171.4 138.2,170.6 142.6,169.5 C147,168.4 151.2,167 155.1,165.2 C158.4,163.7 161.2,161.9 163.6,159.9 C161.8,158.2 160,156.6 158.3,154.9 Z M68.7,76.5 C65.8,79.5 62.2,81 58,81 L47.3,81 L47.3,50.3 L58,50.3 C62.2,50.3 65.8,51.8 68.7,54.7 C71.6,57.6 73.1,61.2 73.1,65.5 C73,69.8 71.6,73.4 68.7,76.5 Z"/>
                <polygon points="489.1 2 489.1 58.5 462 58.5 462 2 415.7 2 415.7 162 462 162 462 104.8 489.1 104.8 489.1 162 535.4 162 535.4 2"/>
                <path d="M398.7,93.3 C396.9,88.6 394.3,84.3 391.1,80.4 C387.9,76.5 384,73.1 379.6,70.1 C375.2,67.2 370.3,64.9 365,63.3 L339.9,55.1 C338.3,54.1 336.9,52.7 335.8,50.9 C334.7,49.1 335,47.4 336.6,45.8 C338.7,44.2 341,43.2 343.8,42.7 C346.5,42.3 349.3,42.2 352.3,42.5 C357.4,43.2 363.1,44.4 369.3,46 C375.5,47.6 380.9,49.4 385.6,51.3 C386.2,41.3 386.6,33.8 386.7,28.9 C386.8,24 386.9,20.3 386.9,17.9 C386.9,15.5 386.9,13.7 386.9,12.5 C386.9,11.3 387,9.5 387.3,7 C379.4,4.2 371.5,2.3 363.8,1.4 C356.1,0.4 348.3,0.1 340.5,0.4 C334.5,0.4 328.1,1.3 321.5,3 C315.5,4.5 310.3,6.6 305.9,9.5 C301.6,12.4 298,15.7 295.1,19.4 C292.2,23.1 290.1,27.2 288.8,31.6 C287.5,36 286.8,40.6 286.8,45.3 C286.8,48 283.5,69.3 311.8,87.8 C321.4,94.1 335.9,99.9 339.5,101.3 C341.2,101.9 342.8,102.7 344.3,103.7 C345.8,104.7 347.1,105.8 348.2,107.2 C349.2,108.6 349.7,110.2 349.7,111.9 C349.4,114.4 348.4,116.1 346.8,117.1 C345.2,118.1 343.2,118.6 340.8,118.8 C337,118.8 325,116 321.7,114.8 C313.6,111.9 294.2,103.3 286.6,100 L286.6,101.8 C286.6,112.1 284.5,122 280.5,131.2 C278.2,136.3 275.5,141 272.3,145.4 C302.7,160.8 326.9,163.8 343.8,162.9 C365.6,161.8 378.1,154.1 387,145.7 C391.7,141.2 395.1,135.6 397.7,129.4 C400.3,123.1 401.5,116.1 401.3,108.3 C401.5,103 400.6,98 398.7,93.3 Z"/>
                <path d="M225.5,99.7 C225.5,103.4 224.1,106.6 221.2,109.3 C218.3,112 215,113.4 211.2,113.4 C207.5,113.4 204.3,112 201.4,109.3 C198.5,106.6 197.1,103.4 197.1,99.7 L197.1,1.5 L150.8,1.5 L150.8,101.9 C150.8,110.1 152.4,117.9 155.7,125.2 C158.9,132.5 163.3,138.8 168.8,144.2 C174.3,149.6 180.7,153.8 188,157 C195.3,160.2 203,161.7 211.3,161.7 C219.5,161.7 227.3,160.1 234.7,157 C242.1,153.8 248.5,149.6 254,144.2 C259.5,138.8 263.9,132.5 267.1,125.2 C270.3,117.9 272,110.2 272,101.9 L272,1.5 L225.7,1.5 L225.7,99.7 L225.5,99.7 Z"/>
            </g>
            <g>
                <path d="M243.61,242 L162.86,288.6 C145.920844,298.382209 125.049156,298.382209 108.11,288.6 L27.37,242 C10.421348,232.212314 -0.0135800219,214.121802 -7.10542736e-15,194.55 L-7.10542736e-15,101.34 C0.0256976982,81.8075007 10.455365,63.768025 27.37,54 L108.12,7.34 C125.059156,-2.44220867 145.930844,-2.44220867 162.87,7.34 L243.61,54 C260.547784,63.7718865 270.988016,81.8355085 271,101.39 L271,194.64 C270.977308,214.18377 260.538511,232.233476 243.61,242 Z" fill="url(#linearGradient-1)" fill-rule="nonzero"/>
                <g transform="translate(94.000000, 49.000000)">
                    <g fill="#000000" fill-rule="nonzero">
                        <path d="M7,111.86 C8.89365024,112.774009 10.5270656,114.149516 11.75,115.86 C13.0550782,117.738911 13.9885329,119.850216 14.5,122.08 C15.1294383,124.763672 15.4316372,127.513682 15.4,130.27 L15.4,150.77 C15.3778804,155.913268 16.0986529,161.032773 17.54,165.97 C19.0063807,170.870922 21.4752435,175.41363 24.79,179.31 C28.6095878,183.71753 33.1929889,187.399833 38.32,190.18 C44.7149719,193.646892 51.5506043,196.230438 58.64,197.86 L65.69,180 C62.9901739,179.12337 60.5294772,177.634632 58.5,175.65 C56.6047602,173.728152 55.079359,171.473948 54,169 C52.8299934,166.308211 52.0358815,163.468251 51.64,160.56 C51.1819185,157.31363 50.958007,154.038508 50.97,150.76 L50.97,130.25 C51.0323163,123.771227 49.1703655,117.419713 45.62,112 C42.0466667,106.506667 36.3166667,102.143333 28.43,98.91 C36.3166667,95.6766667 42.0466667,91.3433333 45.62,85.91 C49.1981825,80.4755793 51.0715903,74.0962426 51,67.59 L51,47.07 C50.9880762,43.7914944 51.2119872,40.5163772 51.67,37.27 C52.0562936,34.3631991 52.8402973,31.5232887 54,28.83 C55.0795578,26.3674992 56.6013741,24.1237522 58.49,22.21 C60.5194772,20.2253683 62.9801739,18.7366297 65.68,17.86 L58.6,0.07 C51.5176711,1.69895776 44.6841354,4.26489658 38.28,7.7 C33.1489282,10.4487141 28.5635603,14.1122637 24.75,18.51 C21.4352435,22.4063702 18.9663807,26.9490777 17.5,31.85 C16.0612184,36.7909666 15.3438086,41.9138794 15.37,47.06 L15.37,67.58 C15.37,73.6466667 14.15,78.48 11.71,82.08 C9.27,85.68 5.36666667,87.4833333 0,87.49 L0,110.43 C2.4119431,110.365586 4.80656914,110.854774 7,111.86 Z"/>
                    </g>
                    <g fill="#FFFFFF">
                        <path d="M7,111.86 C8.89365024,112.774009 10.5270656,114.149516 11.75,115.86 C13.0550782,117.738911 13.9885329,119.850216 14.5,122.08 C15.1294383,124.763672 15.4316372,127.513682 15.4,130.27 L15.4,150.77 C15.3778804,155.913268 16.0986529,161.032773 17.54,165.97 C19.0063807,170.870922 21.4752435,175.41363 24.79,179.31 C28.6095878,183.71753 33.1929889,187.399833 38.32,190.18 C44.7149719,193.646892 51.5506043,196.230438 58.64,197.86 L65.69,180 C62.9901739,179.12337 60.5294772,177.634632 58.5,175.65 C56.6047602,173.728152 55.079359,171.473948 54,169 C52.8299934,166.308211 52.0358815,163.468251 51.64,160.56 C51.1819185,157.31363 50.958007,154.038508 50.97,150.76 L50.97,130.25 C51.0323163,123.771227 49.1703655,117.419713 45.62,112 C42.0466667,106.506667 36.3166667,102.143333 28.43,98.91 C36.3166667,95.6766667 42.0466667,91.3433333 45.62,85.91 C49.1981825,80.4755793 51.0715903,74.0962426 51,67.59 L51,47.07 C50.9880762,43.7914944 51.2119872,40.5163772 51.67,37.27 C52.0562936,34.3631991 52.8402973,31.5232887 54,28.83 C55.0795578,26.3674992 56.6013741,24.1237522 58.49,22.21 C60.5194772,20.2253683 62.9801739,18.7366297 65.68,17.86 L58.6,0.07 C51.5176711,1.69895776 44.6841354,4.26489658 38.28,7.7 C33.1489282,10.4487141 28.5635603,14.1122637 24.75,18.51 C21.4352435,22.4063702 18.9663807,26.9490777 17.5,31.85 C16.0612184,36.7909666 15.3438086,41.9138794 15.37,47.06 L15.37,67.58 C15.37,73.6466667 14.15,78.48 11.71,82.08 C9.27,85.68 5.36666667,87.4833333 0,87.49 L0,110.43 C2.4119431,110.365586 4.80656914,110.854774 7,111.86 Z"/>
                    </g>
                </g>
            </g>
        </g>
    </g>
</svg>
